<?xml version="1.0" encoding="UTF-8"?>
<svg xmlns="http://www.w3.org/2000/svg" viewBox="0 0 120 120"><path d="M60 30 q-10 14 -4 30 q-14 -6 -22 4 q14 4 18 14 q-12 6 -8 20 q12 -10 22 -6 q4 14 18 12 q-8 -12 0 -22 q14 2 20 -10 q-14 -2 -16 -14 q12 -6 8 -18 q-12 8 -22 2 q2 -12 -12 -12 z" fill="#E07856" stroke="#065f46" stroke-width="2.2" stroke-linejoin="round"/><circle cx="56" cy="52" r="3" fill="#065f46"/><path d="M50 58 l-7 2" stroke="#B88848" stroke-width="2.4" stroke-linecap="round"/><g fill="#D4A574"><path d="M60 86 q-4 12 0 18 q4 -6 6 -2 q-2 -8 2 -12 q-5 -2 -8 -4z"/></g></svg>
